<?xml version="1.0" encoding="iso-8859-1"?>
<!-- Generator: Adobe Illustrator 19.0.0, SVG Export Plug-In . SVG Version: 6.00 Build 0)  -->
<svg version="1.1" id="Capa_1" xmlns="http://www.w3.org/2000/svg" xmlns:xlink="http://www.w3.org/1999/xlink" x="0px" y="0px"
	 viewBox="0 0 512 512" style="enable-background:new 0 0 512 512;" xml:space="preserve">
<circle style="fill:#71C2F5;" cx="264.143" cy="268.215" r="236.151"/>
<path style="fill:#56ACE1;" d="M304.859,488.079c-130.423,0-236.151-105.728-236.151-236.151
	c0-91.621,52.177-171.052,128.437-210.207C99.359,70.603,27.992,161.067,27.992,268.215c0,130.423,105.729,236.151,236.151,236.151
	c38.802,0,75.418-9.361,107.714-25.944C350.616,484.696,328.134,488.079,304.859,488.079z"/>
<g>
	<path style="fill:#15B259;" d="M197.136,41.725c-45.124,13.333-84.624,39.772-114.077,74.925l17.232,17.232
		C122.995,94.621,156.673,62.503,197.136,41.725z"/>
	<path style="fill:#15B259;" d="M202.893,464.987l-33.883,19.416c29.106,12.826,61.283,19.963,95.132,19.963
		c38.787,0,75.384-9.359,107.67-25.93c-21.228,6.265-43.695,9.644-66.954,9.644C268.341,488.079,233.761,479.786,202.893,464.987z"
		/>
</g>
<path style="fill:#3AC274;" d="M468.465,386.677L342.86,356.771c0,0-19.679-59.038-19.679-68.878
	c0-9.84,49.198-68.878,49.198-68.878l119.728-12.603C464.941,105.969,373.18,32.064,264.143,32.064
	c-23.279,0-45.763,3.384-67.007,9.662c-40.462,20.777-74.14,52.896-96.844,92.156l26.097,26.097l78.717,9.84l59.038,49.538
	l9.84,58.699l9.84,59.038l-35.966,102.128l-44.963,25.766c30.868,14.799,65.447,23.093,101.965,23.093
	c23.259,0,45.725-3.378,66.954-9.644C412.15,457.731,445.755,425.763,468.465,386.677z"/>
<path style="fill:#15B259;" d="M68.708,251.928c0-6.448,0.269-12.833,0.776-19.151l-39.302,3.276
	c-1.433,10.518-2.189,21.251-2.189,32.161c0,78.406,38.221,147.873,97.037,190.824l30.995-23.776
	C102.752,391.965,68.708,325.927,68.708,251.928z"/>
<path style="fill:#3AC274;" d="M205.105,346.931l-49.198-29.519l-39.359-88.557l-47.065,3.922
	c-0.507,6.317-0.776,12.702-0.776,19.151c0,73.999,34.044,140.037,87.315,183.336l26.689-20.473L205.105,346.931z"/>
<path style="fill:#FFCF1A;" d="M264.143,341.503c0-35.978,29.167-65.145,65.145-65.145s65.145,29.167,65.145,65.145
	c0,48.859-65.145,114.004-65.145,114.004S264.143,390.362,264.143,341.503z"/>
<path style="fill:#FFBE35;" d="M288.573,333.36c0-24.172,13.176-45.253,32.726-56.497c-32.207,3.941-57.156,31.368-57.156,64.64
	c0,48.859,65.145,114.004,65.145,114.004s6.689-6.692,15.774-17.383C327.343,418.436,288.573,371.055,288.573,333.36z"/>
<circle style="fill:#FFE88F;" cx="329.288" cy="341.503" r="32.573"/>
<path style="fill:#FFCF1A;" d="M329.288,72.779c0-35.978,29.167-65.145,65.145-65.145s65.145,29.167,65.145,65.145
	c0,48.859-65.145,114.004-65.145,114.004S329.288,121.638,329.288,72.779z"/>
<path style="fill:#FFBE35;" d="M353.718,64.636c0-24.172,13.176-45.253,32.726-56.497c-32.207,3.941-57.156,31.368-57.156,64.64
	c0,48.859,65.145,114.004,65.145,114.004s6.689-6.692,15.774-17.383C392.488,149.713,353.718,102.332,353.718,64.636z"/>
<circle style="fill:#FFE88F;" cx="394.433" cy="72.779" r="32.573"/>
<path style="fill:#FFCF1A;" d="M11.706,178.64c0-35.978,29.167-65.145,65.145-65.145s65.145,29.167,65.145,65.145
	c0,48.859-65.145,114.004-65.145,114.004S11.706,227.499,11.706,178.64z"/>
<path style="fill:#FFBE35;" d="M36.135,170.497c0-24.172,13.176-45.253,32.726-56.497c-32.207,3.941-57.156,31.368-57.156,64.64
	c0,48.859,65.145,114.004,65.145,114.004s6.689-6.692,15.774-17.383C74.906,255.573,36.135,208.193,36.135,170.497z"/>
<circle style="fill:#FFE88F;" cx="76.851" cy="178.64" r="32.573"/>
<path d="M455.173,116.755c7.146-14.644,12.04-29.831,12.04-43.976C467.213,32.649,434.564,0,394.433,0
	c-25.981,0-48.812,13.695-61.692,34.235c-14.118-4.131-28.683-7.003-43.358-8.514c-4.187-0.435-7.944,2.618-8.376,6.813
	c-0.432,4.194,2.619,7.944,6.813,8.375c12.887,1.326,25.685,3.762,38.13,7.247c-2.775,7.695-4.295,15.984-4.295,24.623
	c0,51.43,64.63,116.652,67.38,119.402c2.941,2.94,7.857,2.94,10.797,0c1.737-1.738,28.148-28.389,47.379-60.746
	c15.693,20.932,27.472,43.934,35.101,68.333L371.58,211.424c-1.976,0.209-3.794,1.179-5.066,2.706
	c-1.147,1.376-28.233,33.928-42.104,54.776c-15.689,1.044-30.038,7.065-41.459,16.519l-1.439-8.632l-9.84-58.699
	c-0.3-1.792-1.23-3.418-2.621-4.587l-59.038-49.538c-1.126-0.945-2.502-1.544-3.961-1.726l-60.492-7.562
	c-7.433-21.253-24.454-38.027-45.859-45.126c40.665-42.221,94.853-66.862,153.599-69.606c4.212-0.196,7.466-3.77,7.27-7.981
	c-0.196-4.211-3.77-7.486-7.981-7.27c-33.172,1.548-65.07,9.657-94.809,24.098c-28.825,13.998-54.288,33.268-75.684,57.274
	c-1.734-0.124-3.479-0.21-5.244-0.21c-40.13,0-72.779,32.649-72.779,72.779c0,18.131,8.036,37.973,18.558,56.192
	c-1.505,10.99-2.272,22.218-2.272,33.383c0,65.118,25.359,126.337,71.403,172.382C137.806,486.641,199.025,512,264.143,512
	s126.337-25.359,172.382-71.403c46.045-46.045,71.403-107.264,71.403-172.382C507.928,212.571,489.685,160.218,455.173,116.755z
	 M394.433,175.692c-15.249-16.545-57.511-65.752-57.511-102.913c0-31.711,25.799-57.511,57.511-57.511s57.511,25.8,57.511,57.511
	C451.944,109.941,409.682,159.148,394.433,175.692z M329.288,283.992c31.711,0,57.511,25.799,57.511,57.511
	c0,37.161-42.262,86.368-57.511,102.913c-15.249-16.545-57.511-65.752-57.511-102.913
	C271.777,309.792,297.577,283.992,329.288,283.992z M201.923,177.114l55.157,46.281l9.373,55.915l3.382,20.296
	c-8.381,11.856-13.326,26.305-13.326,41.897c0,10.148,2.523,20.833,6.584,31.469l-21.494,61.036l-72.934,41.795
	c-10.679-4.932-20.915-10.662-30.631-17.118l49.324-37.836c1.215-0.932,2.122-2.21,2.603-3.665l22.394-67.86
	c1.119-3.39-0.261-7.102-3.321-8.938l-47.129-28.278l-32.832-73.873c11.489-19.127,20.559-40.329,20.559-59.595
	c0-2.746-0.167-5.453-0.464-8.121L201.923,177.114z M76.851,121.129c31.711,0,57.511,25.8,57.511,57.511
	c0,37.161-42.261,86.368-57.511,102.913C61.601,265.008,19.34,215.801,19.34,178.64C19.34,146.929,45.139,121.129,76.851,121.129z
	 M35.626,268.215c0-4.223,0.121-8.456,0.352-12.68c16.738,23.614,34.078,41.111,35.475,42.507c2.939,2.94,7.858,2.94,10.796,0
	c1.436-1.436,19.736-19.901,36.901-44.537l29.781,67.009c0.637,1.435,1.702,2.638,3.049,3.446l43.963,26.378l-19.743,59.829
	l-51.143,39.231C70.716,407.583,35.626,341.924,35.626,268.215z M264.143,496.732c-27.232,0-53.362-4.797-77.602-13.576
	l65.112-37.312c1.589-0.911,2.797-2.361,3.405-4.088l17.251-48.986c19.323,35.597,49.714,66.267,51.581,68.135
	c2.941,2.94,7.857,2.94,10.797,0c2.143-2.143,41.84-42.203,59.278-84.119l62.412,14.86
	C415.676,454.815,344.714,496.732,264.143,496.732z M464.562,377.901l-65.556-15.608c1.94-7.052,3.062-14.04,3.062-20.788
	c0-35.692-25.834-65.444-59.78-71.593c11.722-16.386,28.337-36.763,33.989-43.627l110.145-11.594
	c4.128,17.31,6.238,35.227,6.238,53.525C492.66,307.938,482.464,345.322,464.562,377.901z"/>
<path d="M329.288,381.71c22.17,0,40.207-18.037,40.207-40.207c0-22.17-18.037-40.207-40.207-40.207
	c-22.17,0-40.207,18.037-40.207,40.207C289.082,363.673,307.119,381.71,329.288,381.71z M329.288,316.565
	c13.752,0,24.938,11.188,24.938,24.938c0,13.751-11.187,24.938-24.938,24.938s-24.938-11.188-24.938-24.938
	C304.35,327.752,315.537,316.565,329.288,316.565z"/>
<path d="M394.433,32.573c-22.17,0-40.207,18.037-40.207,40.207s18.037,40.207,40.207,40.207s40.207-18.037,40.207-40.207
	S416.603,32.573,394.433,32.573z M394.433,97.718c-13.752,0-24.938-11.188-24.938-24.938s11.187-24.938,24.938-24.938
	s24.938,11.188,24.938,24.938S408.185,97.718,394.433,97.718z"/>
<path d="M117.058,178.64c0-22.17-18.037-40.207-40.207-40.207S36.644,156.47,36.644,178.64s18.037,40.207,40.207,40.207
	S117.058,200.81,117.058,178.64z M51.913,178.64c0-13.751,11.188-24.938,24.938-24.938s24.938,11.188,24.938,24.938
	s-11.188,24.938-24.938,24.938S51.913,192.391,51.913,178.64z"/>
<g>
</g>
<g>
</g>
<g>
</g>
<g>
</g>
<g>
</g>
<g>
</g>
<g>
</g>
<g>
</g>
<g>
</g>
<g>
</g>
<g>
</g>
<g>
</g>
<g>
</g>
<g>
</g>
<g>
</g>
</svg>
